<?xml version="1.0" encoding="UTF-8" standalone="no"?>
<!-- Created with Inkscape (http://www.inkscape.org/) -->

<svg
   version="1.1"
   id="svg1"
   width="355.89874"
   height="352.9975"
   viewBox="0 0 355.89875 352.9975"
   xmlns="http://www.w3.org/2000/svg"
   xmlns:svg="http://www.w3.org/2000/svg">
  <defs
     id="defs1" />
  <g
     id="g1"
     transform="translate(-13.944991,-14.139223)">
    <path
       id="path1"
       d="M -128.97826,0 H 124.8679"
       style="fill:none;stroke:#000000;stroke-width:0.79701;stroke-linecap:butt;stroke-linejoin:miter;stroke-miterlimit:10;stroke-dasharray:none;stroke-opacity:1"
       transform="matrix(1.3333333,0,0,-1.3333333,185.916,321.44)" />
    <path
       id="path2"
       d="M 5.44046,0 1.28699,1.5706 2.66432,0 1.28699,-1.5706 Z"
       style="fill:#000000;fill-opacity:1;fill-rule:nonzero;stroke:#000000;stroke-width:0.79701;stroke-linecap:butt;stroke-linejoin:miter;stroke-miterlimit:10;stroke-dasharray:none;stroke-opacity:1"
       transform="matrix(1.3333333,0,0,-1.3333333,349.11977,321.44)" />
    <path
       id="path3"
       d="m 3.3269375,-3.0111328 c 0.058594,-0.2578125 0.2929687,-1.171875 0.984375,-1.171875 0.046875,0 0.2929687,0 0.5039062,0.1289062 -0.28125,0.046875 -0.4804687,0.3046875 -0.4804687,0.5390625 0,0.1640625 0.1054687,0.3515625 0.375,0.3515625 0.2226562,0 0.5390625,-0.1875 0.5390625,-0.5859375 0,-0.515625 -0.5859375,-0.65625 -0.9257813,-0.65625 -0.5742187,0 -0.9257812,0.5273438 -1.0429687,0.7617188 -0.2578125,-0.65625 -0.7851563,-0.7617188 -1.078125,-0.7617188 -1.0429688,0 -1.60546875,1.2890625 -1.60546875,1.5351563 0,0.1054687 0.10546875,0.1054687 0.1171875,0.1054687 0.0820313,0 0.1171875,-0.023437 0.12890625,-0.1171875 0.3398437,-1.0546875 0.9960937,-1.3007812 1.3359375,-1.3007812 0.1875,0 0.5390625,0.09375 0.5390625,0.6679687 0,0.3046875 -0.1640625,0.9726563 -0.5390625,2.3671875 -0.1523438,0.62109379 -0.5039063,1.04296879 -0.9492188,1.04296879 -0.058594,0 -0.28124995,0 -0.49218745,-0.12890625 0.24609375,-0.0585938 0.46874995,-0.26953125 0.46874995,-0.5390625 0,-0.26953124 -0.2226562,-0.35156254 -0.37499995,-0.35156254 -0.29296875,0 -0.5390625,0.25781254 -0.5390625,0.57421879 0,0.45703125 0.4921875,0.65625 0.93749995,0.65625 0.65625,0 1.0078125,-0.69140625 1.0429688,-0.75 0.1171875,0.36328125 0.4804687,0.75 1.078125,0.75 1.0195312,0 1.59375,-1.27734379 1.59375,-1.53515629 0,-0.09375 -0.09375,-0.09375 -0.1289063,-0.09375 -0.082031,0 -0.1054687,0.035156 -0.1289062,0.1054688 -0.328125,1.06640624 -0.9960938,1.31249999 -1.3242188,1.31249999 -0.3867187,0 -0.5390625,-0.328125 -0.5390625,-0.65625 0,-0.22265625 0.058594,-0.44531249 0.1640625,-0.87890629 z m 0,0"
       style="fill:#000000;fill-opacity:1;fill-rule:nonzero;stroke:none"
       aria-label="x"
       transform="matrix(1.3333333,0,0,1.3333333,362.84533,324.3)" />
    <path
       id="path4"
       d="M 0,-18.42545 V 198.56978"
       style="fill:none;stroke:#000000;stroke-width:0.79701;stroke-linecap:butt;stroke-linejoin:miter;stroke-miterlimit:10;stroke-dasharray:none;stroke-opacity:1"
       transform="matrix(1.3333333,0,0,-1.3333333,185.916,321.44)" />
    <path
       id="path5"
       d="M 5.44046,0 1.28699,1.5706 2.66432,0 1.28699,-1.5706 Z"
       style="fill:#000000;fill-opacity:1;fill-rule:nonzero;stroke:#000000;stroke-width:0.79701;stroke-linecap:butt;stroke-linejoin:miter;stroke-miterlimit:10;stroke-dasharray:none;stroke-opacity:1"
       transform="matrix(0,-1.3333333,-1.3333333,0,185.916,59.967067)" />
    <path
       id="path6"
       d="m 4.84025,-3.7957578 c 0.046875,-0.140625 0.046875,-0.1523438 0.046875,-0.2226563 0,-0.1875 -0.140625,-0.2695312 -0.2929688,-0.2695312 -0.1054687,0 -0.2578125,0.058594 -0.3515625,0.1992187 -0.023437,0.058594 -0.09375,0.3632813 -0.140625,0.5390625 -0.070312,0.2578125 -0.140625,0.5273438 -0.1992187,0.796875 l -0.4453125,1.79296879 c -0.035156,0.15234375 -0.46875,0.85546875 -1.125,0.85546875 -0.5039063,0 -0.6210938,-0.4453125 -0.6210938,-0.80859375 0,-0.45703129 0.1757813,-1.07812499 0.515625,-1.95703129 0.1523438,-0.4101562 0.1992188,-0.515625 0.1992188,-0.7148437 0,-0.4453125 -0.328125,-0.8203125 -0.8203125,-0.8203125 -0.94921875,0 -1.3125,1.453125 -1.3125,1.5351562 0,0.1054688 0.09375,0.1054688 0.1171875,0.1054688 0.09375,0 0.10546875,-0.023437 0.15234375,-0.1875 0.26953125,-0.9375 0.66796875,-1.2304688 1.00781245,-1.2304688 0.082031,0 0.2578125,0 0.2578125,0.3164063 0,0.2460937 -0.1054687,0.515625 -0.1757812,0.703125 -0.3984375,1.0546875 -0.5742188,1.6171875 -0.5742188,2.0859375 0,0.89062499 0.6210938,1.18359374 1.21875,1.18359374 0.3867188,0 0.7265625,-0.1640625 0.9960938,-0.4453125 C 3.1644687,0.17689844 3.0472812,0.66908594 2.6488437,1.1964297 2.3910312,1.5362734 2.0160312,1.8292422 1.559,1.8292422 c -0.140625,0 -0.59765625,-0.035156 -0.76171875,-0.421875 0.1640625,0 0.29296875,0 0.43359375,-0.1171875 0.09375,-0.09375 0.1992187,-0.2226563 0.1992187,-0.41015626 0,-0.31640625 -0.2695312,-0.3515625 -0.375,-0.3515625 -0.2226562,0 -0.5507812,0.1640625 -0.5507812,0.64453126 0,0.5039062 0.43359375,0.8671875 1.0546875,0.8671875 1.0195312,0 2.0507812,-0.9023438 2.3320312,-2.02734376 z m 0,0"
       style="fill:#000000;fill-opacity:1;fill-rule:nonzero;stroke:none"
       aria-label="y"
       transform="matrix(1.3333333,0,0,1.3333333,182.42133,43.658667)" />
    <path
       id="path7"
       d="m -110.55281,1.29515 v -2.5903"
       style="fill:none;stroke:#000000;stroke-width:0.3985;stroke-linecap:butt;stroke-linejoin:miter;stroke-miterlimit:10;stroke-dasharray:none;stroke-opacity:1"
       transform="matrix(1.3333333,0,0,-1.3333333,185.916,321.44)" />
    <path
       id="path8"
       d="M 2.5556562,-1.6628984 V -2.2136797 H 0.09471875 v 0.5507813 z m 4.7373047,0.140625 c 0,-0.7851563 -0.6210937,-1.4414063 -1.4882812,-1.6289063 0.8320312,-0.3164062 1.2304687,-0.9726562 1.2304687,-1.59375 0,-0.6914062 -0.7617187,-1.21875 -1.6875,-1.21875 -0.9375,0 -1.640625,0.5273438 -1.640625,1.2070313 0,0.2929687 0.1992188,0.46875 0.4570313,0.46875 0.2695312,0 0.4570312,-0.1875 0.4570312,-0.4570313 0,-0.3046875 -0.2226562,-0.4453125 -0.5273437,-0.4453125 0.234375,-0.375 0.7851562,-0.5507812 1.21875,-0.5507812 0.75,0 0.890625,0.5859375 0.890625,1.0078125 0,0.2695312 -0.058594,0.703125 -0.28125,1.0429687 -0.2695313,0.3984375 -0.5859375,0.421875 -0.84375,0.4335938 -0.234375,0.023437 -0.2460938,0.023437 -0.3164063,0.023437 -0.082031,0.011719 -0.1523437,0.011719 -0.1523437,0.1171875 0,0.1171875 0.070312,0.1171875 0.2226562,0.1171875 h 0.421875 c 0.7734375,0 1.125,0.6210937 1.125,1.4765625 0,1.14843746 -0.6210937,1.46484371 -1.078125,1.46484371 -0.1640625,0 -1.03125,-0.03515625 -1.4414062,-0.703125 0.328125,0.046875 0.5742187,-0.17578125 0.5742187,-0.48046871 0,-0.3046875 -0.2226562,-0.4921875 -0.4804687,-0.4921875 -0.2226563,0 -0.4921875,0.140625 -0.4921875,0.515625 0,0.79687496 0.8320312,1.41796871 1.875,1.41796871 1.1132812,0 1.9570312,-0.80859375 1.9570312,-1.72265571 z m 0,0"
       style="fill:#000000;fill-opacity:1;fill-rule:nonzero;stroke:none"
       aria-label="-3"
       transform="matrix(1.3333333,0,0,1.3333333,33.389333,335.82267)" />
    <path
       id="path9"
       d="m -73.70186,1.29515 v -2.5903"
       style="fill:none;stroke:#000000;stroke-width:0.3985;stroke-linecap:butt;stroke-linejoin:miter;stroke-miterlimit:10;stroke-dasharray:none;stroke-opacity:1"
       transform="matrix(1.3333333,0,0,-1.3333333,185.916,321.44)" />
    <path
       id="path10"
       d="M 2.5542656,-1.6628984 V -2.2136797 H 0.09332813 v 0.5507813 z m 4.6582032,0.082031 H 6.966375 c -0.023437,0.1171875 -0.09375,0.64453126 -0.2109375,0.78515626 -0.046875,0.0820313 -0.6679687,0.0820313 -0.84375,0.0820313 h -1.59375 L 5.1968438,-1.5574297 c 1.4765625,-1.2773437 2.015625,-1.7460937 2.015625,-2.6601562 0,-1.03125 -0.84375,-1.7460938 -1.9453125,-1.7460938 -1.03125,0 -1.734375,0.8085938 -1.734375,1.6289063 0,0.4453125 0.3867187,0.4921875 0.46875,0.4921875 0.1992187,0 0.46875,-0.140625 0.46875,-0.46875 0,-0.2695313 -0.1875,-0.46875 -0.46875,-0.46875 -0.046875,0 -0.070312,0 -0.1054688,0.011719 0.2109375,-0.6328125 0.7851563,-0.9257812 1.265625,-0.9257812 0.9140625,0 1.2304688,0.8554687 1.2304688,1.4765625 0,0.9140625 -0.6914063,1.6523437 -1.125,2.1210937 l -1.640625,1.76953126 c -0.09375,0.10546875 -0.09375,0.1171875 -0.09375,0.328125 H 6.966375 Z m 0,0"
       style="fill:#000000;fill-opacity:1;fill-rule:nonzero;stroke:none"
       aria-label="-2"
       transform="matrix(1.3333333,0,0,1.3333333,82.524,335.82267)" />
    <path
       id="path11"
       d="m -36.85092,1.29515 v -2.5903"
       style="fill:none;stroke:#000000;stroke-width:0.3985;stroke-linecap:butt;stroke-linejoin:miter;stroke-miterlimit:10;stroke-dasharray:none;stroke-opacity:1"
       transform="matrix(1.3333333,0,0,-1.3333333,185.916,321.44)" />
    <path
       id="path12"
       d="M 2.5558047,-1.6628984 V -2.2136797 H 0.09486719 v 0.5507813 z m 4.3857422,1.66406246 v -0.28125 h -0.28125 c -0.8320313,0 -0.8554688,-0.10546875 -0.8554688,-0.43359375 V -5.7293047 c 0,-0.2226562 -0.011719,-0.234375 -0.234375,-0.234375 -0.5625,0.5625 -1.3828125,0.5625 -1.6640625,0.5625 v 0.28125 c 0.1757813,0 0.7148438,0 1.2070313,-0.234375 v 4.64062501 c 0,0.328125 -0.035156,0.43359375 -0.8671875,0.43359375 h -0.28125 v 0.28125 c 0.3164062,-0.0234375 1.1132812,-0.0234375 1.4882812,-0.0234375 0.3632813,0 1.171875,0 1.4882813,0.0234375 z m 0,0"
       style="fill:#000000;fill-opacity:1;fill-rule:nonzero;stroke:none"
       aria-label="-1"
       transform="matrix(1.3333333,0,0,1.3333333,131.65867,335.82267)" />
    <path
       id="path13"
       d="m 36.85092,1.29515 v -2.5903"
       style="fill:none;stroke:#000000;stroke-width:0.3985;stroke-linecap:butt;stroke-linejoin:miter;stroke-miterlimit:10;stroke-dasharray:none;stroke-opacity:1"
       transform="matrix(1.3333333,0,0,-1.3333333,185.916,321.44)" />
    <path
       id="path14"
       d="m 3.8685391,0.00116406 v -0.28125 h -0.28125 c -0.8320313,0 -0.8554688,-0.10546875 -0.8554688,-0.43359375 V -5.7293047 c 0,-0.2226562 -0.011719,-0.234375 -0.234375,-0.234375 -0.5625,0.5625 -1.3828125,0.5625 -1.66406249,0.5625 v 0.28125 c 0.17578129,0 0.71484379,0 1.20703129,-0.234375 v 4.64062501 c 0,0.328125 -0.035156,0.43359375 -0.8671875,0.43359375 H 0.89197656 v 0.28125 c 0.31640624,-0.0234375 1.11328124,-0.0234375 1.48828124,-0.0234375 0.3632813,0 1.171875,0 1.4882813,0.0234375 z m 0,0"
       style="fill:#000000;fill-opacity:1;fill-rule:nonzero;stroke:none"
       aria-label="1"
       transform="matrix(1.3333333,0,0,1.3333333,231.97867,335.82267)" />
    <path
       id="path15"
       d="m 73.70186,1.29515 v -2.5903"
       style="fill:none;stroke:#000000;stroke-width:0.3985;stroke-linecap:butt;stroke-linejoin:miter;stroke-miterlimit:10;stroke-dasharray:none;stroke-opacity:1"
       transform="matrix(1.3333333,0,0,-1.3333333,185.916,321.44)" />
    <path
       id="path16"
       d="M 4.1376797,-1.5808672 H 3.8915859 c -0.023437,0.1171875 -0.09375,0.64453126 -0.2109375,0.78515626 -0.046875,0.0820313 -0.6679687,0.0820313 -0.84375,0.0820313 h -1.59375 L 2.1220547,-1.5574297 c 1.4765625,-1.2773437 2.015625,-1.7460937 2.015625,-2.6601562 0,-1.03125 -0.84375,-1.7460938 -1.9453125,-1.7460938 -1.03125,0 -1.73437501,0.8085938 -1.73437501,1.6289063 0,0.4453125 0.38671875,0.4921875 0.46875,0.4921875 0.19921871,0 0.46875001,-0.140625 0.46875001,-0.46875 0,-0.2695313 -0.1875,-0.46875 -0.46875001,-0.46875 -0.046875,0 -0.0703125,0 -0.10546875,0.011719 0.21093746,-0.6328125 0.78515626,-0.9257812 1.26562496,-0.9257812 0.9140625,0 1.2304688,0.8554687 1.2304688,1.4765625 0,0.9140625 -0.6914063,1.6523437 -1.125,2.1210937 l -1.64062501,1.76953126 c -0.09375,0.10546875 -0.09375,0.1171875 -0.09375,0.328125 H 3.8915859 Z m 0,0"
       style="fill:#000000;fill-opacity:1;fill-rule:nonzero;stroke:none"
       aria-label="2"
       transform="matrix(1.3333333,0,0,1.3333333,281.112,335.82267)" />
    <path
       id="path17"
       d="m 110.55281,1.29515 v -2.5903"
       style="fill:none;stroke:#000000;stroke-width:0.3985;stroke-linecap:butt;stroke-linejoin:miter;stroke-miterlimit:10;stroke-dasharray:none;stroke-opacity:1"
       transform="matrix(1.3333333,0,0,-1.3333333,185.916,321.44)" />
    <path
       id="path18"
       d="m 4.2183203,-1.5222734 c 0,-0.7851563 -0.6210937,-1.4414063 -1.4882812,-1.6289063 0.8320312,-0.3164062 1.2304687,-0.9726562 1.2304687,-1.59375 0,-0.6914062 -0.7617187,-1.21875 -1.6875,-1.21875 -0.9375,0 -1.64062499,0.5273438 -1.64062499,1.2070313 0,0.2929687 0.19921875,0.46875 0.45703129,0.46875 0.2695312,0 0.4570312,-0.1875 0.4570312,-0.4570313 0,-0.3046875 -0.2226562,-0.4453125 -0.5273437,-0.4453125 0.234375,-0.375 0.7851562,-0.5507812 1.21875,-0.5507812 0.75,0 0.890625,0.5859375 0.890625,1.0078125 0,0.2695312 -0.058594,0.703125 -0.28125,1.0429687 -0.2695313,0.3984375 -0.5859375,0.421875 -0.84375,0.4335938 -0.234375,0.023437 -0.2460938,0.023437 -0.3164063,0.023437 -0.082031,0.011719 -0.1523437,0.011719 -0.1523437,0.1171875 0,0.1171875 0.070312,0.1171875 0.2226562,0.1171875 h 0.421875 c 0.7734375,0 1.125,0.6210937 1.125,1.4765625 0,1.14843746 -0.6210937,1.46484371 -1.078125,1.46484371 -0.1640625,0 -1.03125,-0.03515625 -1.44140624,-0.703125 0.32812504,0.046875 0.57421874,-0.17578125 0.57421874,-0.48046871 0,-0.3046875 -0.2226562,-0.4921875 -0.48046874,-0.4921875 -0.22265625,0 -0.4921875,0.140625 -0.4921875,0.515625 0,0.79687496 0.83203124,1.41796871 1.87500004,1.41796871 1.1132812,0 1.9570312,-0.80859375 1.9570312,-1.72265571 z m 0,0"
       style="fill:#000000;fill-opacity:1;fill-rule:nonzero;stroke:none"
       aria-label="3"
       transform="matrix(1.3333333,0,0,1.3333333,330.24667,335.82267)" />
    <path
       id="path19"
       d="m 1.29515,36.85092 h -2.5903"
       style="fill:none;stroke:#000000;stroke-width:0.3985;stroke-linecap:butt;stroke-linejoin:miter;stroke-miterlimit:10;stroke-dasharray:none;stroke-opacity:1"
       transform="matrix(1.3333333,0,0,-1.3333333,185.916,321.44)" />
    <path
       id="path20"
       d="m 3.8678594,-0.00113281 v -0.28125 h -0.28125 c -0.8320313,0 -0.8554688,-0.10546875 -0.8554688,-0.43359375 V -5.7316016 c 0,-0.2226562 -0.011719,-0.234375 -0.234375,-0.234375 -0.5625,0.5625 -1.3828125,0.5625 -1.66406247,0.5625 v 0.28125 c 0.17578127,0 0.71484377,0 1.20703127,-0.234375 v 4.64062504 c 0,0.328125 -0.035156,0.43359375 -0.8671875,0.43359375 H 0.89129688 v 0.28125 c 0.31640622,-0.0234375 1.11328122,-0.0234375 1.48828122,-0.0234375 0.3632813,0 1.171875,0 1.4882813,0.0234375 z m 0,0"
       style="fill:#000000;fill-opacity:1;fill-rule:nonzero;stroke:none"
       aria-label="1"
       transform="matrix(1.3333333,0,0,1.3333333,173.35067,276.28667)" />
    <path
       id="path21"
       d="m 1.29515,73.70186 h -2.5903"
       style="fill:none;stroke:#000000;stroke-width:0.3985;stroke-linecap:butt;stroke-linejoin:miter;stroke-miterlimit:10;stroke-dasharray:none;stroke-opacity:1"
       transform="matrix(1.3333333,0,0,-1.3333333,185.916,321.44)" />
    <path
       id="path22"
       d="M 4.1373906,-1.5817734 H 3.8912969 c -0.023437,0.1171875 -0.09375,0.64453121 -0.2109375,0.78515621 -0.046875,0.0820313 -0.6679688,0.0820313 -0.84375,0.0820313 h -1.59375 L 2.1217656,-1.5583359 c 1.4765625,-1.2773438 2.015625,-1.7460938 2.015625,-2.6601563 0,-1.03125 -0.84375,-1.7460937 -1.9453125,-1.7460937 -1.03125,0 -1.73437497,0.8085937 -1.73437497,1.6289062 0,0.4453125 0.38671875,0.4921875 0.46875,0.4921875 0.19921877,0 0.46874997,-0.140625 0.46874997,-0.46875 0,-0.2695312 -0.1875,-0.46875 -0.46874997,-0.46875 -0.046875,0 -0.0703125,0 -0.10546875,0.011719 0.21093752,-0.6328125 0.78515622,-0.9257813 1.26562502,-0.9257813 0.9140625,0 1.2304687,0.8554688 1.2304687,1.4765625 0,0.9140625 -0.6914062,1.6523438 -1.125,2.1210938 l -1.64062497,1.76953121 c -0.09375,0.10546875 -0.09375,0.1171875 -0.09375,0.3281250025 H 3.8912969 Z m 0,0"
       style="fill:#000000;fill-opacity:1;fill-rule:nonzero;stroke:none"
       aria-label="2"
       transform="matrix(1.3333333,0,0,1.3333333,173.35067,227.152)" />
    <path
       id="path23"
       d="m 1.29515,110.55281 h -2.5903"
       style="fill:none;stroke:#000000;stroke-width:0.3985;stroke-linecap:butt;stroke-linejoin:miter;stroke-miterlimit:10;stroke-dasharray:none;stroke-opacity:1"
       transform="matrix(1.3333333,0,0,-1.3333333,185.916,321.44)" />
    <path
       id="path24"
       d="m 4.2194219,-1.5223984 c 0,-0.7851563 -0.6210938,-1.4414063 -1.4882813,-1.6289063 0.8320313,-0.3164062 1.2304688,-0.9726562 1.2304688,-1.59375 0,-0.6914062 -0.7617188,-1.21875 -1.6875,-1.21875 -0.9375,0 -1.64062502,0.5273438 -1.64062502,1.2070313 0,0.2929687 0.19921875,0.46875 0.45703122,0.46875 0.2695313,0 0.4570313,-0.1875 0.4570313,-0.4570313 0,-0.3046875 -0.2226563,-0.4453125 -0.5273438,-0.4453125 0.234375,-0.375 0.7851563,-0.5507812 1.21875,-0.5507812 0.75,0 0.890625,0.5859375 0.890625,1.0078125 0,0.2695312 -0.058594,0.703125 -0.28125,1.0429687 -0.2695312,0.3984375 -0.5859375,0.421875 -0.84375,0.4335938 -0.234375,0.023437 -0.2460937,0.023437 -0.3164062,0.023437 -0.082031,0.011719 -0.1523438,0.011719 -0.1523438,0.1171875 0,0.1171875 0.070312,0.1171875 0.2226563,0.1171875 h 0.421875 c 0.7734375,0 1.125,0.6210937 1.125,1.4765625 0,1.14843746 -0.6210938,1.46484371 -1.078125,1.46484371 -0.1640625,0 -1.03125,-0.03515625 -1.44140627,-0.703125 0.32812497,0.046875 0.57421877,-0.17578125 0.57421877,-0.48046871 0,-0.3046875 -0.2226563,-0.4921875 -0.48046877,-0.4921875 -0.22265625,0 -0.4921875,0.140625 -0.4921875,0.515625 0,0.79687496 0.83203127,1.41796871 1.87499997,1.41796871 1.1132813,0 1.9570313,-0.80859375 1.9570313,-1.72265571 z m 0,0"
       style="fill:#000000;fill-opacity:1;fill-rule:nonzero;stroke:none"
       aria-label="3"
       transform="matrix(1.3333333,0,0,1.3333333,173.35067,177.88533)" />
    <path
       id="path25"
       d="m 1.29515,147.40375 h -2.5903"
       style="fill:none;stroke:#000000;stroke-width:0.3985;stroke-linecap:butt;stroke-linejoin:miter;stroke-miterlimit:10;stroke-dasharray:none;stroke-opacity:1"
       transform="matrix(1.3333333,0,0,-1.3333333,185.916,321.44)" />
    <path
       id="path26"
       d="m 4.3366094,-1.4756484 v -0.28125 H 3.4225469 v -4.0664063 c 0,-0.1875 0,-0.2460937 -0.1640625,-0.2460937 -0.1054688,0 -0.1171875,0.011719 -0.1992188,0.140625 l -2.80078122,4.171875 v 0.28125 H 2.7077031 v 0.77343746 c 0,0.328125 -0.023437,0.421875 -0.703125,0.421875 h -0.1875 V 9.140625e-4 C 2.3795781,-0.02252344 3.0006719,-0.02252344 3.0709844,-0.02252344 c 0.035156,0 0.6914062,0 1.2539062,0.0234375025 V -0.28033594 H 4.1256719 c -0.6679688,0 -0.703125,-0.09375 -0.703125,-0.421875 V -1.4756484 Z m -1.5703125,-0.28125 H 0.55145313 L 2.7662969,-5.0733047 Z m 0,0"
       style="fill:#000000;fill-opacity:1;fill-rule:nonzero;stroke:none"
       aria-label="4"
       transform="matrix(1.3333333,0,0,1.3333333,173.35067,128.948)" />
    <path
       id="path27"
       d="m -92.12732,230.31834 c 0,0 1.34433,-6.67987 1.86064,-9.20936 0.51631,-2.5295 1.34435,-6.54418 1.86066,-9.02155 0.51632,-2.47738 1.34433,-6.40855 1.86064,-8.83373 0.51633,-2.4252 1.34436,-6.27232 1.86068,-8.64538 0.51632,-2.37308 1.34434,-6.13716 1.86065,-8.45813 0.51633,-2.32095 1.34433,-6.00099 1.86064,-8.26977 0.51633,-2.26876 1.34435,-5.8653 1.86066,-8.08192 0.51631,-2.21665 1.34433,-5.72971 1.86065,-7.89416 0.51633,-2.16444 1.34433,-5.59344 1.86065,-7.70578 0.51632,-2.11232 1.34433,-5.4583 1.86065,-7.51851 0.51631,-2.06021 1.34433,-5.32205 1.86066,-7.33015 0.51631,-2.00809 1.34434,-5.18692 1.86066,-7.1429 0.51632,-1.956 1.34434,-5.05077 1.86067,-6.95454 0.51629,-1.9038 1.34431,-4.91513 1.86064,-6.76673 0.51631,-1.85161 1.34433,-4.77888 1.86064,-6.57837 0.51633,-1.79946 1.34433,-4.64367 1.86064,-6.39111 0.51633,-1.74742 1.34435,-4.50804 1.86067,-6.20328 0.51632,-1.69523 1.34433,-4.37188 1.86065,-6.01492 0.51632,-1.64305 1.34433,-4.23621 1.86064,-5.82713 0.51633,-1.59095 1.34436,-4.10052 1.86068,-5.63933 0.51632,-1.53882 1.34432,-3.9648 1.86065,-5.45149 0.51632,-1.48671 1.34434,-3.8292 1.86064,-5.2637 0.51632,-1.4345 1.34434,-3.69294 1.86067,-5.07534 0.51631,-1.38238 1.34431,-3.55778 1.86064,-4.88808 0.51631,-1.33027 1.34433,-3.42161 1.86064,-4.6997 0.51633,-1.27809 1.34435,-3.28592 1.86066,-4.5119 0.51631,-1.22597 1.34433,-3.15024 1.86065,-4.3241 0.51632,-1.17386 1.34437,-3.01454 1.86066,-4.13628 0.51633,-1.12172 1.34434,-2.87893 1.86066,-3.94845 0.51633,-1.06955 1.34433,-2.74271 1.86066,-3.76013 0.51631,-1.01742 1.34431,-2.60756 1.86064,-3.57287 0.51632,-0.9653 1.34434,-2.47137 1.86065,-3.38449 0.51632,-0.9131 1.34433,-2.33569 1.86066,-3.19668 0.51631,-0.86099 1.34432,-2.19997 1.86064,-3.00885 0.51631,-0.80889 1.34435,-2.06438 1.86064,-2.82108 0.51633,-0.7567 1.34436,-1.9281 1.86069,-2.63267 0.51631,-0.70459 1.34432,-1.79298 1.86064,-2.44545 0.51631,-0.65245 1.34435,-1.65682 1.86066,-2.25708 0.51631,-0.60027 1.34433,-1.52112 1.86064,-2.06928 0.51633,-0.54814 1.34433,-1.38543 1.86066,-1.88145 0.51631,-0.49602 1.34433,-1.24974 1.86064,-1.69364 0.51633,-0.44391 1.34434,-1.11413 1.86066,-1.50586 0.51632,-0.3917 1.34434,-0.97786 1.86067,-1.31745 0.51631,-0.33959 1.34433,-0.84273 1.86065,-1.13022 0.5163,-0.28748 1.34433,-0.70658 1.86065,-0.94187 0.51633,-0.2353 1.34433,-0.57086 1.86065,-0.75404 0.51631,-0.18318 1.34433,-0.43518 1.86064,-0.56624 0.51632,-0.13107 1.34435,-0.29956 1.86066,-0.37843 0.51633,-0.07887 1.34433,-0.1633 1.86064,-0.19007 0.51633,-0.02671 1.34429,-0.02813 1.86061,-0.0028 0.51632,0.02536 1.34436,0.10803 1.86068,0.18557 0.51632,0.07755 1.34433,0.24378 1.86064,0.37336 0.51632,0.12959 1.34433,0.37884 1.86065,0.56062 0.51632,0.18178 1.34433,0.51558 1.86065,0.74954 0.51632,0.23396 1.34434,0.65079 1.86065,0.93678 0.51633,0.28601 1.34433,0.78641 1.86066,1.12463 0.51631,0.33819 1.34431,0.92257 1.86064,1.31297 0.51631,0.39038 1.34435,1.05835 1.86066,1.50076 0.51632,0.44243 1.34434,1.19348 1.86067,1.68803 0.51631,0.49454 1.34433,1.32958 1.86066,1.87639 0.51629,0.54683 1.34433,1.46584 1.86064,2.06479 0.51633,0.59894 1.34433,1.60103 1.86064,2.252 0.51633,0.65098 1.34433,1.73665 1.86066,2.43982 0.51631,0.70317 1.34433,1.87284 1.86065,2.62822 0.51633,0.75535 1.34433,2.0085 1.86064,2.81598 0.51633,0.80749 1.34434,2.14421 1.86066,3.00381 0.51631,0.85959 1.34435,2.27991 1.86067,3.19162 0.51631,0.91171 1.34433,2.41561 1.86064,3.37943 0.51633,0.96382 1.34435,2.5512 1.86066,3.56723 0.51631,1.01602 1.34433,2.68739 1.86066,3.75561 0.51631,1.06821 1.34433,2.82306 1.86064,3.94341 0.51633,1.12034 1.34433,2.95877 1.86064,4.13124 0.51633,1.17245 1.34435,3.09443 1.86067,4.31901 0.5163,1.22458 1.34433,3.23017 1.86064,4.50685 0.51633,1.27669 1.34436,3.36585 1.86066,4.69466 0.51633,1.3288 1.34435,3.50145 1.86067,4.88245 0.51631,1.38099 1.34432,3.63763 1.86064,5.07083 0.51633,1.43318 1.34433,3.77333 1.86065,5.25862 0.51632,1.48532 1.34434,3.90904 1.86067,5.44644 0.51629,1.53743 1.34431,4.04476 1.86064,5.63428 0.51631,1.58952 1.34433,4.1804 1.86064,5.82205 0.51633,1.64163 1.34436,4.31601 1.86069,6.00987 0.51631,1.69385 1.34431,4.45227 1.86064,6.19825 0.51631,1.74595 1.34433,4.58738 1.86064,6.38548 0.51632,1.79808 1.34435,4.72357 1.86066,6.57385 0.51631,1.85028 1.34433,4.8593 1.86066,6.76169 0.5163,1.90239 1.34431,4.99489 1.86064,6.94946 0.51632,1.95458 1.34434,5.13114 1.86064,7.13785 0.51632,2.00668 1.34434,5.26628 1.86067,7.32509 0.51631,2.05879 1.34433,5.40254 1.86065,7.51347 0.51632,2.11092 1.34435,5.53765 1.86066,7.7007 0.51631,2.16304 1.34433,5.67384 1.86066,7.88907 0.51631,2.21524 1.34431,5.80952 1.86064,8.07689 0.51631,2.26736 1.34434,5.94514 1.86064,8.26471 0.51633,2.31955 1.34435,6.08139 1.86066,8.45306 0.51633,2.37168 1.34433,6.21652 1.86066,8.64032 0.51631,2.42378 1.34433,6.35269 1.86064,8.82868 0.51632,2.47596 1.34436,6.48838 1.86067,9.01648 0.51633,2.5281 1.86066,9.20431 1.86066,9.20431"
       style="fill:none;stroke:#cc0000;stroke-width:1.59404;stroke-linecap:butt;stroke-linejoin:miter;stroke-miterlimit:10;stroke-dasharray:none;stroke-opacity:1"
       transform="matrix(1.3333333,0,0,-1.3333333,185.916,321.44)" />
    <g
       id="g27"
       aria-label="f(x)=x&#10;2"
       transform="matrix(1.3333333,0,0,1.3333333,77.6,47.608)">
      <path
         id="path28"
         d="m 3.6574219,-3.9833438 h 0.8554687 c 0.1992188,0 0.3046875,0 0.3046875,-0.1992187 0,-0.1054688 -0.1054687,-0.1054688 -0.2695312,-0.1054688 H 3.7160156 L 3.9269531,-5.42475 c 0.035156,-0.2109375 0.1757813,-0.9140625 0.234375,-1.0429688 0.09375,-0.1875 0.2578125,-0.3398437 0.46875,-0.3398437 0.046875,0 0.3046875,0 0.4921875,0.1875 -0.4335937,0.035156 -0.5390625,0.3867187 -0.5390625,0.5390625 0,0.2226562 0.1757813,0.3398437 0.3632813,0.3398437 0.2695312,0 0.5507812,-0.2109375 0.5507812,-0.5976562 0,-0.4570313 -0.4570312,-0.6796875 -0.8671875,-0.6796875 -0.3398437,0 -0.9609375,0.1757812 -1.265625,1.1601562 -0.058594,0.2109375 -0.082031,0.3164063 -0.328125,1.5703125 H 2.3566406 c -0.1992187,0 -0.3046875,0 -0.3046875,0.1875 0,0.1171875 0.09375,0.1171875 0.28125,0.1171875 h 0.65625 l -0.75,3.93750005 C 2.0636719,0.91509375 1.8996094,1.8291562 1.3722656,1.8291562 c -0.035156,0 -0.28125,0 -0.46874997,-0.1875 C 1.3605469,1.6182187 1.4425781,1.2549375 1.4425781,1.1025937 1.4425781,0.8799375 1.2667969,0.76275 1.0792969,0.76275 c -0.25781252,0 -0.55078127,0.2109375 -0.55078127,0.5976562 0,0.4453125 0.43359375,0.6796875 0.84374997,0.6796875 0.5507813,0 0.9492188,-0.5859375 1.125,-0.9609375 0.328125,-0.63281245 0.5507813,-1.8398437 0.5625,-1.9101562 z m 0,0"
         style="fill:#cc0000;fill-opacity:1;fill-rule:nonzero;stroke:none" />
      <path
         id="path29"
         d="m 9.2443359,2.3916562 c 0,-0.035156 0,-0.046875 -0.1640625,-0.2226562 -1.2421875,-1.25390625 -1.5703125,-3.12890625 -1.5703125,-4.6640625 0,-1.7226563 0.3867188,-3.4570313 1.6054688,-4.7109375 0.1289062,-0.1171875 0.1289062,-0.1289063 0.1289062,-0.1640625 0,-0.070312 -0.035156,-0.1054688 -0.09375,-0.1054688 -0.1054687,0 -0.9960937,0.6796875 -1.5820312,1.9453125 -0.515625,1.1015625 -0.6328125,2.203125 -0.6328125,3.0351563 0,0.7851562 0.1171875,1.9921875 0.65625,3.1171875 0.5976562,1.21875 1.453125,1.875 1.5585937,1.875 0.058594,0 0.09375,-0.035156 0.09375,-0.1054688 z m 0,0"
         style="fill:#cc0000;fill-opacity:1;fill-rule:nonzero;stroke:none" />
      <path
         id="path30"
         d="m 13.152539,-3.0106875 c 0.05859,-0.2578125 0.292969,-1.171875 0.984375,-1.171875 0.04687,0 0.292969,0 0.503906,0.1289062 -0.28125,0.046875 -0.480468,0.3046875 -0.480468,0.5390625 0,0.1640625 0.105468,0.3515625 0.375,0.3515625 0.222656,0 0.539062,-0.1875 0.539062,-0.5859375 0,-0.515625 -0.585937,-0.65625 -0.925781,-0.65625 -0.574219,0 -0.925781,0.5273438 -1.042969,0.7617188 -0.257812,-0.65625 -0.785156,-0.7617188 -1.078125,-0.7617188 -1.042969,0 -1.605469,1.2890625 -1.605469,1.5351563 0,0.1054687 0.105469,0.1054687 0.117188,0.1054687 0.08203,0 0.117187,-0.023437 0.128906,-0.1171875 0.339844,-1.0546875 0.996094,-1.3007812 1.335938,-1.3007812 0.1875,0 0.539062,0.09375 0.539062,0.6679687 0,0.3046875 -0.164062,0.9726563 -0.539062,2.3671875 -0.152344,0.6210938 -0.503907,1.0429688 -0.949219,1.0429688 -0.05859,0 -0.28125,0 -0.492188,-0.12890625 0.246094,-0.0585938 0.46875,-0.26953125 0.46875,-0.5390625 0,-0.26953125 -0.222656,-0.35156255 -0.375,-0.35156255 -0.292968,0 -0.539062,0.25781255 -0.539062,0.5742188 0,0.45703125 0.492187,0.65625 0.9375,0.65625 0.65625,0 1.007812,-0.69140625 1.042969,-0.75 0.117187,0.36328125 0.480468,0.75 1.078125,0.75 1.019531,0 1.59375,-1.2773438 1.59375,-1.5351563 0,-0.09375 -0.09375,-0.09375 -0.128907,-0.09375 -0.08203,0 -0.105468,0.035156 -0.128906,0.1054688 -0.328125,1.06640625 -0.996094,1.3125 -1.324219,1.3125 -0.386718,0 -0.539062,-0.328125 -0.539062,-0.65625 0,-0.22265625 0.05859,-0.4453125 0.164062,-0.8789063 z m 0,0"
         style="fill:#cc0000;fill-opacity:1;fill-rule:nonzero;stroke:none" />
      <path
         id="path31"
         d="m 18.402539,-2.4950625 c 0,-0.7734375 -0.117187,-1.9804688 -0.65625,-3.1054688 -0.597656,-1.21875 -1.464844,-1.875 -1.558594,-1.875 -0.05859,0 -0.105468,0.046875 -0.105468,0.1054688 0,0.035156 0,0.046875 0.199218,0.234375 0.972657,0.984375 1.535157,2.5664062 1.535157,4.640625 0,1.7109375 -0.363282,3.45703125 -1.59375,4.7226562 -0.140625,0.1171875 -0.140625,0.1289063 -0.140625,0.1640625 0,0.058594 0.04687,0.1054688 0.105468,0.1054688 0.09375,0 0.996094,-0.6796875 1.582032,-1.9453125 0.503906,-1.1015625 0.632812,-2.203125 0.632812,-3.046875 z M 28.9875,-3.2567813 c 0.152344,0 0.339844,0 0.339844,-0.1992187 0,-0.1992188 -0.1875,-0.1992188 -0.328125,-0.1992188 h -5.964844 c -0.140625,0 -0.328125,0 -0.328125,0.1992188 0,0.1992187 0.1875,0.1992187 0.339844,0.1992187 z m 0.01172,1.9335938 c 0.140625,0 0.328125,0 0.328125,-0.1992188 0,-0.1992187 -0.1875,-0.1992187 -0.339844,-0.1992187 h -5.941406 c -0.152344,0 -0.339844,0 -0.339844,0.1992187 0,0.1992188 0.1875,0.1992188 0.328125,0.1992188 z m 0,0"
         style="fill:#cc0000;fill-opacity:1;fill-rule:nonzero;stroke:none" />
      <path
         id="path32"
         d="m 36.004102,-3.0106875 c 0.05859,-0.2578125 0.292968,-1.171875 0.984375,-1.171875 0.04687,0 0.292968,0 0.503906,0.1289062 -0.28125,0.046875 -0.480469,0.3046875 -0.480469,0.5390625 0,0.1640625 0.105469,0.3515625 0.375,0.3515625 0.222656,0 0.539063,-0.1875 0.539063,-0.5859375 0,-0.515625 -0.585938,-0.65625 -0.925782,-0.65625 -0.574218,0 -0.925781,0.5273438 -1.042968,0.7617188 -0.257813,-0.65625 -0.785157,-0.7617188 -1.078125,-0.7617188 -1.042969,0 -1.605469,1.2890625 -1.605469,1.5351563 0,0.1054687 0.105469,0.1054687 0.117187,0.1054687 0.08203,0 0.117188,-0.023437 0.128907,-0.1171875 0.339843,-1.0546875 0.996093,-1.3007812 1.335937,-1.3007812 0.1875,0 0.539063,0.09375 0.539063,0.6679687 0,0.3046875 -0.164063,0.9726563 -0.539063,2.3671875 -0.152344,0.6210938 -0.503906,1.0429688 -0.949219,1.0429688 -0.05859,0 -0.28125,0 -0.492187,-0.12890625 0.246094,-0.0585938 0.46875,-0.26953125 0.46875,-0.5390625 0,-0.26953125 -0.222656,-0.35156255 -0.375,-0.35156255 -0.292969,0 -0.539063,0.25781255 -0.539063,0.5742188 0,0.45703125 0.492188,0.65625 0.9375,0.65625 0.65625,0 1.007813,-0.69140625 1.042969,-0.75 0.117188,0.36328125 0.480469,0.75 1.078125,0.75 1.019531,0 1.59375,-1.2773438 1.59375,-1.5351563 0,-0.09375 -0.09375,-0.09375 -0.128906,-0.09375 -0.08203,0 -0.105469,0.035156 -0.128906,0.1054688 -0.328125,1.06640625 -0.996094,1.3125 -1.324219,1.3125 -0.386719,0 -0.539063,-0.328125 -0.539063,-0.65625 0,-0.22265625 0.05859,-0.4453125 0.164063,-0.8789063 z m 0,0"
         style="fill:#cc0000;fill-opacity:1;fill-rule:nonzero;stroke:none" />
      <path
         id="path33"
         d="m 41.886914,-4.8798281 h -0.234375 c -0.02344,0.1523437 -0.08203,0.5625 -0.175781,0.6328125 -0.05859,0.035156 -0.597656,0.035156 -0.691406,0.035156 h -1.289063 c 0.738281,-0.6445312 0.984375,-0.84375 1.394531,-1.171875 0.515625,-0.4101562 0.996094,-0.84375 0.996094,-1.5 0,-0.84375 -0.738281,-1.359375 -1.628906,-1.359375 -0.867188,0 -1.453125,0.609375 -1.453125,1.2421875 0,0.3632813 0.304687,0.3984375 0.375,0.3984375 0.164062,0 0.375,-0.1171875 0.375,-0.375 0,-0.1289062 -0.05859,-0.3632812 -0.421875,-0.3632812 0.222656,-0.5039063 0.691406,-0.65625 1.019531,-0.65625 0.703125,0 1.066406,0.5507812 1.066406,1.1132812 0,0.609375 -0.433593,1.0898438 -0.65625,1.3359375 l -1.6875,1.6640625 c -0.07031,0.058594 -0.07031,0.070312 -0.07031,0.2695313 h 2.882812 z m 0,0"
         style="fill:#cc0000;fill-opacity:1;fill-rule:nonzero;stroke:none" />
    </g>
    <path
       id="path34"
       d="M -117.92288,0 H 117.92288"
       style="fill:none;stroke:#0000e6;stroke-width:1.99255;stroke-linecap:butt;stroke-linejoin:miter;stroke-miterlimit:10;stroke-dasharray:none;stroke-opacity:0.7"
       transform="matrix(1.3333333,0,0,-1.3333333,185.916,321.44)" />
    <path
       id="path35"
       d="m -124.34467,7.37006 h 6.42179"
       style="fill:none;stroke:#0000e6;stroke-width:0.99628;stroke-linecap:butt;stroke-linejoin:miter;stroke-miterlimit:10;stroke-dasharray:none;stroke-opacity:1"
       transform="matrix(1.3333333,0,0,-1.3333333,185.916,321.44)" />
    <path
       id="path36"
       d="M 6.05339,0 1.60873,1.68304 3.08754,0 1.60873,-1.68304 Z"
       style="fill:#0000e6;fill-opacity:1;fill-rule:nonzero;stroke:#0000e6;stroke-width:0.99628;stroke-linecap:butt;stroke-linejoin:miter;stroke-miterlimit:10;stroke-dasharray:none;stroke-opacity:1"
       transform="matrix(-1.3333333,0,0,1.3333333,23.90776,311.61325)" />
    <path
       id="path37"
       d="m 117.92288,7.37006 h 6.42179"
       style="fill:none;stroke:#0000e6;stroke-width:0.99628;stroke-linecap:butt;stroke-linejoin:miter;stroke-miterlimit:10;stroke-dasharray:none;stroke-opacity:1"
       transform="matrix(1.3333333,0,0,-1.3333333,185.916,321.44)" />
    <path
       id="path38"
       d="M 6.05339,0 1.60873,1.68304 3.08754,0 1.60873,-1.68304 Z"
       style="fill:#0000e6;fill-opacity:1;fill-rule:nonzero;stroke:#0000e6;stroke-width:0.99628;stroke-linecap:butt;stroke-linejoin:miter;stroke-miterlimit:10;stroke-dasharray:none;stroke-opacity:1"
       transform="matrix(1.3333333,0,0,-1.3333333,347.92424,311.61325)" />
    <g
       id="g38"
       aria-label="Dom(f)=R"
       transform="matrix(1.3333333,0,0,1.3333333,148.396,363.80667)">
      <path
         id="path39"
         d="m 1.5809297,-0.77199219 c -0.09375,0.38671875 -0.1171875,0.46875 -0.90234376,0.46875 -0.17578125,0 -0.28125,0 -0.28125,0.1875 0,0.1171875 0.09375,0.1171875 0.28125,0.1171875 H 3.9715547 c 2.0742187,0 4.03125,-2.09765621 4.03125,-4.28906251 0,-1.3945312 -0.84375,-2.5195312 -2.3320313,-2.5195312 H 2.3192109 c -0.1875,0 -0.2929687,0 -0.2929687,0.1992187 0,0.1171875 0.082031,0.1171875 0.28125,0.1171875 0.1289062,0 0.3164062,0.011719 0.4335937,0.011719 0.1523438,0.023437 0.2109375,0.058594 0.2109375,0.1640625 0,0.035156 0,0.070312 -0.035156,0.1875 z m 2.15625,-5.34375001 c 0.082031,-0.3515625 0.1054687,-0.375 0.5390625,-0.375 h 1.0664062 c 0.9726563,0 1.7929688,0.5273438 1.7929688,1.8398438 0,0.4921875 -0.1992188,2.1210937 -1.0429688,3.2226562 -0.28125,0.3632813 -1.078125,1.12500001 -2.296875,1.12500001 h -1.125 c -0.140625,0 -0.1640625,0 -0.2226562,-0.0117188 -0.09375,-0.0117188 -0.1289063,-0.0234375 -0.1289063,-0.10546875 0,-0.0234375 0,-0.046875 0.046875,-0.22265625 z m 9.4453123,3.3984375 c 0,-1.03125 -0.703125,-1.6875 -1.59375,-1.6875 -1.335937,0 -2.6718748,1.4179688 -2.6718748,2.8359375 0,0.98437501 0.6679687,1.67578126 1.5937498,1.67578126 1.324219,0 2.671875,-1.37109376 2.671875,-2.82421876 z m -2.660156,2.61328126 c -0.433594,0 -0.8671876,-0.31640625 -0.8671876,-1.08984376 0,-0.4921875 0.2578125,-1.5585937 0.5742186,-2.0742187 0.503906,-0.7617188 1.066406,-0.9140625 1.347656,-0.9140625 0.574219,0 0.878907,0.4804687 0.878907,1.078125 0,0.3867187 -0.199219,1.4296875 -0.585938,2.0742187 -0.339844,0.58593751 -0.890625,0.92578126 -1.347656,0.92578126 z m 3.685547,-0.48046875 c -0.03516,0.15234375 -0.09375,0.375 -0.09375,0.421875 0,0.1875 0.140625,0.26953125 0.292969,0.26953125 0.117187,0 0.292968,-0.0703125 0.363281,-0.26953125 0.01172,-0.0234375 0.128906,-0.4921875 0.1875,-0.73828125 l 0.222656,-0.90234376 c 0.05859,-0.2226562 0.117188,-0.4335937 0.175781,-0.6679687 0.03516,-0.1640625 0.117188,-0.4570313 0.128907,-0.4921875 0.140625,-0.3164063 0.667968,-1.21875 1.617187,-1.21875 0.445313,0 0.539063,0.3632812 0.539063,0.6914062 0,0.2578125 -0.07031,0.5390625 -0.152344,0.8320313 l -0.269531,1.1601562 -0.199219,0.75000001 c -0.04687,0.19921875 -0.140625,0.5390625 -0.140625,0.5859375 0,0.1875 0.140625,0.26953125 0.292969,0.26953125 0.304687,0 0.375,-0.24609375 0.445312,-0.5625 0.140625,-0.56249996 0.515625,-2.01562496 0.597656,-2.40234376 0.03516,-0.1289062 0.5625,-1.3242187 1.652344,-1.3242187 0.421875,0 0.539063,0.3398437 0.539063,0.6914062 0,0.5742188 -0.421875,1.7109375 -0.621094,2.2382813 -0.09375,0.234375 -0.128906,0.35156246 -0.128906,0.55078121 0,0.46875 0.351562,0.80859375 0.808593,0.80859375 0.9375,0 1.3125,-1.45312496 1.3125,-1.53515626 0,-0.09375 -0.09375,-0.09375 -0.117187,-0.09375 -0.105469,0 -0.105469,0.023437 -0.152344,0.1757813 -0.152344,0.52734371 -0.46875,1.24218746 -1.019531,1.24218746 -0.164063,0 -0.234375,-0.10546875 -0.234375,-0.328125 0,-0.2578125 0.08203,-0.4921875 0.175781,-0.71484376 0.1875,-0.515625 0.609375,-1.6171875 0.609375,-2.1914062 0,-0.6445313 -0.398437,-1.0664063 -1.148437,-1.0664063 -0.75,0 -1.253907,0.4453125 -1.617188,0.9726563 -0.01172,-0.1289063 -0.04687,-0.46875 -0.328125,-0.7148438 -0.246094,-0.1992187 -0.5625,-0.2578125 -0.808594,-0.2578125 -0.902343,0 -1.382812,0.6445313 -1.558593,0.8671875 -0.04687,-0.5625 -0.46875,-0.8671875 -0.914063,-0.8671875 -0.457031,0 -0.644531,0.3867188 -0.738281,0.5742188 -0.175781,0.3398437 -0.304688,0.9375 -0.304688,0.9609375 0,0.1054687 0.09375,0.1054687 0.117188,0.1054687 0.09375,0 0.105469,-0.011719 0.164062,-0.234375 0.175782,-0.703125 0.375,-1.1835937 0.726563,-1.1835937 0.164062,0 0.316406,0.082031 0.316406,0.4570312 0,0.2109375 -0.03516,0.3164063 -0.164062,0.8320313 z m 0,0"
         style="fill:#0000e6;fill-opacity:1;fill-rule:nonzero;stroke:none" />
      <path
         id="path40"
         d="m 25.396359,2.3920703 c 0,-0.035156 0,-0.046875 -0.164062,-0.2226562 -1.242188,-1.25390629 -1.570313,-3.12890629 -1.570313,-4.6640625 0,-1.7226563 0.386719,-3.4570313 1.605469,-4.7109375 0.128906,-0.1171875 0.128906,-0.1289063 0.128906,-0.1640625 0,-0.070312 -0.03516,-0.1054688 -0.09375,-0.1054688 -0.105468,0 -0.996093,0.6796875 -1.582031,1.9453125 -0.515625,1.1015625 -0.632812,2.203125 -0.632812,3.0351563 0,0.7851562 0.117187,1.99218746 0.65625,3.11718746 0.597656,1.21875004 1.453125,1.87500004 1.558593,1.87500004 0.05859,0 0.09375,-0.035156 0.09375,-0.1054688 z m 0,0"
         style="fill:#0000e6;fill-opacity:1;fill-rule:nonzero;stroke:none" />
      <path
         id="path41"
         d="m 29.632687,-3.9829297 h 0.855469 c 0.199219,0 0.304688,0 0.304688,-0.1992187 0,-0.1054688 -0.105469,-0.1054688 -0.269532,-0.1054688 h -0.832031 l 0.210938,-1.1367187 c 0.03516,-0.2109375 0.175781,-0.9140625 0.234375,-1.0429688 0.09375,-0.1875 0.257812,-0.3398437 0.46875,-0.3398437 0.04687,0 0.304687,0 0.492187,0.1875 -0.433594,0.035156 -0.539062,0.3867187 -0.539062,0.5390625 0,0.2226562 0.175781,0.3398437 0.363281,0.3398437 0.269531,0 0.550781,-0.2109375 0.550781,-0.5976562 0,-0.4570313 -0.457031,-0.6796875 -0.867187,-0.6796875 -0.339844,0 -0.960938,0.1757812 -1.265625,1.1601562 -0.05859,0.2109375 -0.08203,0.3164063 -0.328125,1.5703125 h -0.679688 c -0.199219,0 -0.304687,0 -0.304687,0.1875 0,0.1171875 0.09375,0.1171875 0.28125,0.1171875 h 0.65625 l -0.75,3.93750001 c -0.175782,0.9609375 -0.339844,1.87499999 -0.867188,1.87499999 -0.03516,0 -0.28125,0 -0.46875,-0.1875 0.457031,-0.023437 0.539063,-0.3867187 0.539063,-0.5390625 0,-0.22265624 -0.175782,-0.33984374 -0.363282,-0.33984374 -0.257812,0 -0.550781,0.2109375 -0.550781,0.59765624 0,0.4453125 0.433594,0.6796875 0.84375,0.6796875 0.550781,0 0.949219,-0.5859375 1.125,-0.9609375 0.328125,-0.63281249 0.550781,-1.83984374 0.5625,-1.91015624 z m 0,0"
         style="fill:#0000e6;fill-opacity:1;fill-rule:nonzero;stroke:none" />
      <path
         id="path42"
         d="m 34.809445,-2.4946484 c 0,-0.7734375 -0.117187,-1.9804688 -0.65625,-3.1054688 -0.597656,-1.21875 -1.464843,-1.875 -1.558593,-1.875 -0.05859,0 -0.105469,0.046875 -0.105469,0.1054688 0,0.035156 0,0.046875 0.199219,0.234375 0.972656,0.984375 1.535156,2.5664062 1.535156,4.640625 0,1.71093746 -0.363281,3.45703121 -1.59375,4.7226562 -0.140625,0.1171875 -0.140625,0.1289063 -0.140625,0.1640625 0,0.058594 0.04687,0.1054688 0.105469,0.1054688 0.09375,0 0.996093,-0.6796875 1.582031,-1.94531254 0.503906,-1.1015625 0.632812,-2.20312496 0.632812,-3.04687496 z m 10.584961,-0.7617188 c 0.152344,0 0.339844,0 0.339844,-0.1992187 0,-0.1992188 -0.1875,-0.1992188 -0.328125,-0.1992188 h -5.964844 c -0.140625,0 -0.328125,0 -0.328125,0.1992188 0,0.1992187 0.1875,0.1992187 0.339844,0.1992187 z m 0.01172,1.9335938 c 0.140625,0 0.328125,0 0.328125,-0.1992188 0,-0.1992187 -0.1875,-0.1992187 -0.339844,-0.1992187 H 39.453 c -0.152344,0 -0.339844,0 -0.339844,0.1992187 0,0.1992188 0.1875,0.1992188 0.328125,0.1992188 z m 0,0"
         style="fill:#0000e6;fill-opacity:1;fill-rule:nonzero;stroke:none" />
      <path
         id="path43"
         d="m 51.754758,-3.1274609 h 0.351562 l 1.5,2.30859371 c 0.09375,0.1640625 0.339844,0.55078125 0.445313,0.703125 0.07031,0.1171875 0.105469,0.1171875 0.328125,0.1171875 h 1.382812 c 0.175782,0 0.328125,0 0.328125,-0.17578125 0,-0.0820313 -0.07031,-0.15234375 -0.152343,-0.17578125 -0.375,-0.0820313 -0.855469,-0.73828121 -1.101563,-1.05468751 -0.07031,-0.09375 -0.5625,-0.75 -1.230469,-1.828125 0.890625,-0.1640625 1.746094,-0.5390625 1.746094,-1.7226562 0,-1.3828125 -1.464844,-1.8632813 -2.648437,-1.8632813 h -3.117188 c -0.1875,0 -0.339844,0 -0.339844,0.1757813 0,0.1640625 0.1875,0.1640625 0.269532,0.1640625 0.5625,0 0.609375,0.070312 0.609375,0.5742187 v 4.99218751 c 0,0.4921875 -0.04687,0.5625 -0.609375,0.5625 -0.08203,0 -0.269532,0 -0.269532,0.17578125 0,0.17578125 0.152344,0.17578125 0.339844,0.17578125 h 2.71875 c 0.1875,0 0.328125,0 0.328125,-0.17578125 0,-0.17578125 -0.164062,-0.17578125 -0.269531,-0.17578125 -0.574219,0 -0.609375,-0.0820313 -0.609375,-0.5625 z m 1.921875,-0.4921875 c 0.28125,-0.3632813 0.304687,-0.890625 0.304687,-1.3242188 0,-0.4804687 -0.05859,-1.0078125 -0.375,-1.4179687 0.410157,0.082031 1.394532,0.3984375 1.394532,1.40625 0,0.6445312 -0.304688,1.1484375 -1.324219,1.3359375 z m -1.921875,-2.3203125 c 0,-0.1992188 0,-0.5390625 0.621094,-0.5390625 0.84375,0 1.253906,0.3515625 1.253906,1.5351562 0,1.2773438 -0.304688,1.4648438 -1.875,1.4648438 z m -1.359375,5.58984371 c 0.08203,-0.17578125 0.08203,-0.45703125 0.08203,-0.55078125 V -5.9282422 c 0,-0.09375 0,-0.3632812 -0.08203,-0.5507812 h 1.136719 c -0.128907,0.1640625 -0.128907,0.3632812 -0.128907,0.515625 v 5.06249996 c 0,0.10546875 0,0.375 0.08203,0.55078125 z m 2.121094,-2.77734371 c 0.07031,-0.011719 0.117187,-0.023437 0.1875,-0.023437 0.152343,0 0.375,-0.011719 0.527343,-0.035156 0.140625,0.234375 1.21875,2.015625 2.050782,2.83593751 h -0.972657 z m 0,0"
         style="fill:#0000e6;fill-opacity:1;fill-rule:nonzero;stroke:none" />
    </g>
    <path
       id="path44"
       d="M 0,0 V 191.62476"
       style="fill:none;stroke:#e67300;stroke-width:1.99255;stroke-linecap:butt;stroke-linejoin:miter;stroke-miterlimit:10;stroke-dasharray:none;stroke-opacity:0.7"
       transform="matrix(1.3333333,0,0,-1.3333333,185.916,321.44)" />
    <path
       id="path45"
       d="M 2.59032,0 C 2.59032,1.4306 1.4306,2.59032 0,2.59032 -1.4306,2.59032 -2.59032,1.4306 -2.59032,0 c 0,-1.4306 1.15972,-2.59032 2.59032,-2.59032 1.4306,0 2.59032,1.15972 2.59032,2.59032 z"
       style="fill:#e67300;fill-opacity:1;fill-rule:nonzero;stroke:none"
       transform="matrix(1.3333333,0,0,-1.3333333,185.916,321.44)" />
    <path
       id="path46"
       d="m -7.37006,176.88458 v 10.10659"
       style="fill:none;stroke:#e67300;stroke-width:0.99628;stroke-linecap:butt;stroke-linejoin:miter;stroke-miterlimit:10;stroke-dasharray:none;stroke-opacity:1"
       transform="matrix(1.3333333,0,0,-1.3333333,185.916,321.44)" />
    <path
       id="path47"
       d="M 6.05339,0 1.60873,1.68304 3.08754,0 1.60873,-1.68304 Z"
       style="fill:#e67300;fill-opacity:1;fill-rule:nonzero;stroke:#e67300;stroke-width:0.99628;stroke-linecap:butt;stroke-linejoin:miter;stroke-miterlimit:10;stroke-dasharray:none;stroke-opacity:1"
       transform="matrix(0,-1.3333333,-1.3333333,0,176.08925,75.903093)" />
    <g
       id="g47"
       aria-label="Im(f)=[0,+∞)"
       transform="matrix(1.3333333,0,0,1.3333333,191.29467,79.088)">
      <path
         id="path48"
         d="m 3.7252891,-6.0337734 c 0.09375,-0.3632813 0.1171875,-0.4570313 0.9023437,-0.4570313 0.2460938,0 0.3164063,0 0.3164063,-0.1875 0,-0.1289062 -0.1054688,-0.1289062 -0.140625,-0.1289062 -0.2929688,0 -1.03125,0.035156 -1.3125,0.035156 -0.3046875,0 -1.03125,-0.035156 -1.3359375,-0.035156 -0.058594,0 -0.1992188,0 -0.1992188,0.1992187 0,0.1171875 0.09375,0.1171875 0.28125,0.1171875 0.421875,0 0.6914063,0 0.6914063,0.1875 0,0.046875 0,0.070312 -0.023437,0.1640625 l -1.3476563,5.36718751 c -0.082031,0.36328125 -0.1171875,0.46875 -0.90234374,0.46875 -0.22265625,0 -0.31640625,0 -0.31640625,0.19921875 0,0.10546875 0.1171875,0.10546875 0.15234375,0.10546875 0.28125,0 1.00781254,-0.03515625 1.30078124,-0.03515625 0.3046875,0 1.03125,0.03515625 1.3359375,0.03515625 0.082031,0 0.1992188,0 0.1992188,-0.1875 0,-0.1171875 -0.082031,-0.1171875 -0.3046875,-0.1171875 -0.1757813,0 -0.2226563,0 -0.421875,-0.0234375 -0.2109375,-0.0234375 -0.2460938,-0.0585938 -0.2460938,-0.17578125 0,-0.0703125 0.011719,-0.15234375 0.035156,-0.22265625 z m 2.305664,5.44921871 c -0.035156,0.15234375 -0.09375,0.375 -0.09375,0.421875 0,0.1875 0.140625,0.26953125 0.2929688,0.26953125 0.1171875,0 0.2929687,-0.0703125 0.3632812,-0.26953125 0.011719,-0.0234375 0.1289063,-0.4921875 0.1875,-0.73828125 L 7.0036094,-1.8033047 c 0.058594,-0.2226562 0.1171875,-0.4335937 0.1757812,-0.6679687 0.035156,-0.1640625 0.1171875,-0.4570313 0.1289063,-0.4921875 0.140625,-0.3164063 0.6679687,-1.21875 1.6171875,-1.21875 0.4453125,0 0.5390625,0.3632812 0.5390625,0.6914062 0,0.2578125 -0.070312,0.5390625 -0.1523438,0.8320313 l -0.2695312,1.1601562 -0.1992188,0.75000001 c -0.046875,0.19921875 -0.140625,0.5390625 -0.140625,0.5859375 0,0.1875 0.140625,0.26953125 0.2929688,0.26953125 0.3046875,0 0.375,-0.24609375 0.4453125,-0.5625 0.140625,-0.56249996 0.515625,-2.01562496 0.5976566,-2.40234376 0.03516,-0.1289062 0.5625,-1.3242187 1.652343,-1.3242187 0.421875,0 0.539063,0.3398437 0.539063,0.6914062 0,0.5742188 -0.421875,1.7109375 -0.621094,2.2382813 -0.09375,0.234375 -0.128906,0.35156246 -0.128906,0.55078121 0,0.46875 0.351562,0.80859375 0.808594,0.80859375 0.9375,0 1.3125,-1.45312496 1.3125,-1.53515626 0,-0.09375 -0.09375,-0.09375 -0.117188,-0.09375 -0.105469,0 -0.105469,0.023437 -0.152344,0.1757813 -0.152343,0.52734371 -0.46875,1.24218746 -1.019531,1.24218746 -0.164062,0 -0.234375,-0.10546875 -0.234375,-0.328125 0,-0.2578125 0.08203,-0.4921875 0.175781,-0.71484376 0.1875,-0.515625 0.609375,-1.6171875 0.609375,-2.1914062 0,-0.6445313 -0.398437,-1.0664063 -1.148437,-1.0664063 -0.75,0 -1.253906,0.4453125 -1.617188,0.9726563 -0.01172,-0.1289063 -0.04687,-0.46875 -0.3281246,-0.7148438 -0.2460938,-0.1992187 -0.5625,-0.2578125 -0.8085938,-0.2578125 -0.9023437,0 -1.3828125,0.6445313 -1.5585937,0.8671875 -0.046875,-0.5625 -0.46875,-0.8671875 -0.9140625,-0.8671875 -0.4570313,0 -0.6445313,0.3867188 -0.7382813,0.5742188 -0.1757812,0.3398437 -0.3046875,0.9375 -0.3046875,0.9609375 0,0.1054687 0.09375,0.1054687 0.1171875,0.1054687 0.09375,0 0.1054688,-0.011719 0.1640625,-0.234375 0.1757813,-0.703125 0.375,-1.1835937 0.7265625,-1.1835937 0.1640625,0 0.3164063,0.082031 0.3164063,0.4570312 0,0.2109375 -0.035156,0.3164063 -0.1640625,0.8320313 z m 0,0"
         style="fill:#e67300;fill-opacity:1;fill-rule:nonzero;stroke:none" />
      <path
         id="path49"
         d="m 17.201852,2.3920078 c 0,-0.035156 0,-0.046875 -0.164063,-0.2226562 -1.242187,-1.25390629 -1.570312,-3.12890629 -1.570312,-4.6640625 0,-1.7226563 0.386718,-3.4570313 1.605468,-4.7109375 0.128907,-0.1171875 0.128907,-0.1289063 0.128907,-0.1640625 0,-0.070312 -0.03516,-0.1054688 -0.09375,-0.1054688 -0.105469,0 -0.996094,0.6796875 -1.582032,1.9453125 -0.515625,1.1015625 -0.632812,2.203125 -0.632812,3.0351563 0,0.7851562 0.117187,1.99218746 0.65625,3.11718746 0.597656,1.21875004 1.453125,1.87500004 1.558594,1.87500004 0.05859,0 0.09375,-0.035156 0.09375,-0.1054688 z m 0,0"
         style="fill:#e67300;fill-opacity:1;fill-rule:nonzero;stroke:none" />
      <path
         id="path50"
         d="m 21.43818,-3.9829922 h 0.855468 c 0.199219,0 0.304688,0 0.304688,-0.1992187 0,-0.1054688 -0.105469,-0.1054688 -0.269531,-0.1054688 h -0.832032 l 0.210938,-1.1367187 c 0.03516,-0.2109375 0.175781,-0.9140625 0.234375,-1.0429688 0.09375,-0.1875 0.257812,-0.3398437 0.46875,-0.3398437 0.04687,0 0.304687,0 0.492187,0.1875 -0.433593,0.035156 -0.539062,0.3867187 -0.539062,0.5390625 0,0.2226562 0.175781,0.3398437 0.363281,0.3398437 0.269531,0 0.550781,-0.2109375 0.550781,-0.5976562 0,-0.4570313 -0.457031,-0.6796875 -0.867187,-0.6796875 -0.339844,0 -0.960938,0.1757812 -1.265625,1.1601562 -0.05859,0.2109375 -0.08203,0.3164063 -0.328125,1.5703125 h -0.679688 c -0.199218,0 -0.304687,0 -0.304687,0.1875 0,0.1171875 0.09375,0.1171875 0.28125,0.1171875 h 0.65625 l -0.75,3.93750001 c -0.175781,0.9609375 -0.339844,1.87499999 -0.867188,1.87499999 -0.03516,0 -0.28125,0 -0.46875,-0.1875 0.457032,-0.023437 0.539063,-0.3867187 0.539063,-0.5390625 0,-0.22265624 -0.175781,-0.33984374 -0.363281,-0.33984374 -0.257813,0 -0.550782,0.2109375 -0.550782,0.59765624 0,0.4453125 0.433594,0.6796875 0.84375,0.6796875 0.550782,0 0.949219,-0.5859375 1.125,-0.9609375 0.328125,-0.63281249 0.550782,-1.83984374 0.5625,-1.91015624 z m 0,0"
         style="fill:#e67300;fill-opacity:1;fill-rule:nonzero;stroke:none" />
      <path
         id="path51"
         d="m 26.614937,-2.4947109 c 0,-0.7734375 -0.117187,-1.9804688 -0.65625,-3.1054688 -0.597656,-1.21875 -1.464843,-1.875 -1.558593,-1.875 -0.05859,0 -0.105469,0.046875 -0.105469,0.1054688 0,0.035156 0,0.046875 0.199219,0.234375 0.972656,0.984375 1.535156,2.5664062 1.535156,4.640625 0,1.71093746 -0.363281,3.45703121 -1.59375,4.7226562 -0.140625,0.1171875 -0.140625,0.1289063 -0.140625,0.1640625 0,0.058594 0.04687,0.1054688 0.105469,0.1054688 0.09375,0 0.996093,-0.6796875 1.582031,-1.94531254 0.503906,-1.1015625 0.632812,-2.20312496 0.632812,-3.04687496 z m 0,0"
         style="fill:#e67300;fill-opacity:1;fill-rule:nonzero;stroke:none" />
      <path
         id="path52"
         d="m 34.791695,-3.4556484 c 0,-0.1992188 -0.1875,-0.1992188 -0.328125,-0.1992188 h -5.964843 c -0.140625,0 -0.328125,0 -0.328125,0.1992188 0,0.1992187 0.1875,0.1992187 0.339843,0.1992187 h 5.941407 c 0.152343,0 0.339843,0 0.339843,-0.1992187 z m 0,1.9335937 c 0,-0.1992187 -0.1875,-0.1992187 -0.339843,-0.1992187 h -5.941407 c -0.152343,0 -0.339843,0 -0.339843,0.1992187 0,0.1992188 0.1875,0.1992188 0.328125,0.1992188 h 5.964843 c 0.140625,0 0.328125,0 0.328125,-0.1992188 z m 0,0"
         style="fill:#e67300;fill-opacity:1;fill-rule:nonzero;stroke:none" />
      <path
         id="path53"
         d="M 41.21943,2.4974766 V 2.0990391 h -0.972657 v -9.1757813 h 0.972657 v -0.3984375 h -1.371094 v 9.9726563 z m 4.798828,-5.6835938 c 0,-0.796875 -0.04687,-1.59375 -0.398438,-2.3320312 -0.457031,-0.9609375 -1.277343,-1.1132813 -1.6875,-1.1132813 -0.597656,0 -1.335937,0.2578125 -1.734375,1.1835938 -0.328125,0.6914062 -0.375,1.4648437 -0.375,2.2617187 0,0.75 0.04687,1.640625 0.445313,2.40234376 0.433594,0.80859375 1.160156,1.0078125 1.652344,1.0078125 0.539062,0 1.289062,-0.2109375 1.734375,-1.16015625 0.316406,-0.69140621 0.363281,-1.46484371 0.363281,-2.25000001 z m -2.097656,3.18750001 c -0.386719,0 -0.984375,-0.24609375 -1.160157,-1.20703121 -0.105468,-0.5976563 -0.105468,-1.5117188 -0.105468,-2.0976563 0,-0.6445312 0,-1.3007812 0.08203,-1.8398437 0.1875,-1.1835938 0.925781,-1.265625 1.183594,-1.265625 0.328125,0 0.984375,0.1757812 1.171875,1.1601562 0.09375,0.5625 0.09375,1.3125 0.09375,1.9453125 0,0.75 0,1.4179688 -0.105469,2.0625 -0.152344,0.93750001 -0.714844,1.24218751 -1.160155,1.24218751 z m 0,0"
         style="fill:#e67300;fill-opacity:1;fill-rule:nonzero;stroke:none" />
      <path
         id="path54"
         d="m 48.452828,-0.01033594 c 0,-0.65625 -0.257812,-1.04296876 -0.644531,-1.04296876 -0.328125,0 -0.527344,0.24609376 -0.527344,0.52734376 0,0.26953125 0.199219,0.52734375 0.527344,0.52734375 0.117187,0 0.246094,-0.03515625 0.351562,-0.12890625 0.02344,-0.0234375 0.03516,-0.0351563 0.04687,-0.0351563 0.01172,0 0.02344,0.0117188 0.02344,0.15234375 0,0.73828125 -0.351563,1.33593749 -0.679688,1.66406249 -0.105468,0.1054688 -0.105468,0.1289063 -0.105468,0.1640625 0,0.070312 0.04687,0.1054688 0.09375,0.1054688 0.117187,0 0.914062,-0.7617188 0.914062,-1.93359379 z m 0,0"
         style="fill:#e67300;fill-opacity:1;fill-rule:nonzero;stroke:none" />
      <path
         id="path55"
         d="m 54.930367,-2.2954922 h 2.777344 c 0.140625,0 0.328125,0 0.328125,-0.1992187 0,-0.1992188 -0.1875,-0.1992188 -0.328125,-0.1992188 h -2.777344 v -2.7890625 c 0,-0.1289062 0,-0.328125 -0.199219,-0.328125 -0.199218,0 -0.199218,0.1992188 -0.199218,0.328125 v 2.7890625 h -2.789063 c -0.140625,0 -0.328125,0 -0.328125,0.1992188 0,0.1992187 0.1875,0.1992187 0.328125,0.1992187 h 2.789063 v 2.80078126 c 0,0.12890625 0,0.328125 0.199218,0.328125 0.199219,0 0.199219,-0.19921875 0.199219,-0.328125 z m 0,0"
         style="fill:#e67300;fill-opacity:1;fill-rule:nonzero;stroke:none" />
      <path
         id="path56"
         d="m 63.663766,-2.6939297 c -0.539063,-0.6796875 -0.65625,-0.8320312 -0.972657,-1.078125 -0.550781,-0.4453125 -1.113281,-0.6328125 -1.617187,-0.6328125 -1.171875,0 -1.921875,1.1015625 -1.921875,2.2617188 0,1.14843746 0.738281,2.24999996 1.875,2.24999996 1.148437,0 1.980469,-0.90234375 2.460937,-1.69921876 0.539063,0.67968751 0.65625,0.83203126 0.972657,1.07812501 0.550781,0.4453125 1.113281,0.62109375 1.617187,0.62109375 1.171875,0 1.921875,-1.08984375 1.921875,-2.26171876 0,-1.1367187 -0.726562,-2.25 -1.875,-2.25 -1.148437,0 -1.980469,0.9140625 -2.460937,1.7109375 z m 0.257812,0.3398438 c 0.410156,-0.7265625 1.148438,-1.734375 2.273438,-1.734375 1.054687,0 1.59375,1.0429687 1.59375,1.9335937 0,0.984375 -0.667969,1.79296876 -1.546875,1.79296876 -0.574219,0 -1.03125,-0.421875 -1.230469,-0.6328125 C 64.753609,-1.2642422 64.530953,-1.5689297 63.921578,-2.3540859 Z m -0.691406,0.421875 c -0.410156,0.7148437 -1.136719,1.72265621 -2.273438,1.72265621 -1.054687,0 -1.59375,-1.03125001 -1.59375,-1.93359371 0,-0.9726563 0.667969,-1.78125 1.546875,-1.78125 0.585938,0 1.03125,0.421875 1.242188,0.6328125 0.246094,0.2695312 0.46875,0.5742187 1.078125,1.359375 z m 0,0"
         style="fill:#e67300;fill-opacity:1;fill-rule:nonzero;stroke:none" />
      <path
         id="path57"
         d="m 71.447945,-2.4947109 c 0,-0.7734375 -0.117187,-1.9804688 -0.65625,-3.1054688 -0.597656,-1.21875 -1.464843,-1.875 -1.558593,-1.875 -0.05859,0 -0.105469,0.046875 -0.105469,0.1054688 0,0.035156 0,0.046875 0.199219,0.234375 0.972656,0.984375 1.535156,2.5664062 1.535156,4.640625 0,1.71093746 -0.363281,3.45703121 -1.59375,4.7226562 -0.140625,0.1171875 -0.140625,0.1289063 -0.140625,0.1640625 0,0.058594 0.04687,0.1054688 0.105469,0.1054688 0.09375,0 0.996093,-0.6796875 1.582031,-1.94531254 0.503906,-1.1015625 0.632812,-2.20312496 0.632812,-3.04687496 z m 0,0"
         style="fill:#e67300;fill-opacity:1;fill-rule:nonzero;stroke:none" />
    </g>
  </g>
</svg>
